<svg fill="none" height="100%" width="100%" viewBox="0 0 512 512" xmlns:xlink="http://www.w3.org/1999/xlink" xmlns="http://www.w3.org/2000/svg"><g transform="matrix(1,0,0,1,85.5,74.5)" id="i0"><g><animate repeatCount="indefinite" attributeName="opacity" dur="5s" begin="0s" fill="freeze" values="1; 1; 0; 1; 0; 1; 0" keyTimes="0; 0.262453; 0.382453; 0.56912; 0.795787; 1; 1" keySplines="0 0 1 1; 0.333 0 0.667 1; 0.333 0 0.667 1; 0.333 0 0.667 1; 0.333 0 0.667 1; 0.333 0 0.667 1" calcMode="spline" /><g id="i1" transform="translate(2.75,90.75)"><path fill="#ff730c" d="M0,-2.5C1.381,-2.5,2.5,-1.381,2.5,0C2.5,1.381,1.381,2.5,0,2.5C-1.381,2.5,-2.5,1.381,-2.5,0C-2.5,-1.381,-1.381,-2.5,0,-2.5Z" /></g></g><g><animate repeatCount="indefinite" attributeName="opacity" dur="5s" begin="0s" fill="freeze" values="1; 1; 0; 1; 0; 1; 0" keyTimes="0; 0.04912; 0.16912; 0.355787; 0.582453; 0.802454; 1" keySplines="0 0 1 1; 0.333 0 0.667 1; 0.333 0 0.667 1; 0.333 0 0.667 1; 0.333 0 0.667 1; 0.333 0 0.667 1" calcMode="spline" /><g id="i2" transform="translate(13.75,162.75)"><path fill="#ff730c" d="M0,-2.5C1.381,-2.5,2.5,-1.381,2.5,0C2.5,1.381,1.381,2.5,0,2.5C-1.381,2.5,-2.5,1.381,-2.5,0C-2.5,-1.381,-1.381,-2.5,0,-2.5Z" /></g></g><g><animate repeatCount="indefinite" attributeName="opacity" dur="5s" begin="0s" fill="freeze" values="1; 1; 0; 1; 0; 1; 0" keyTimes="0; 0.00912; 0.12912; 0.315787; 0.542454; 0.762453; 1" keySplines="0 0 1 1; 0.333 0 0.667 1; 0.333 0 0.667 1; 0.333 0 0.667 1; 0.333 0 0.667 1; 0.333 0 0.667 1" calcMode="spline" /><g id="i3" transform="translate(2.75,223.75)"><path fill="#ff730c" d="M0,-2.5C1.381,-2.5,2.5,-1.381,2.5,0C2.5,1.381,1.381,2.5,0,2.5C-1.381,2.5,-2.5,1.381,-2.5,0C-2.5,-1.381,-1.381,-2.5,0,-2.5Z" /></g></g><g><animate repeatCount="indefinite" attributeName="opacity" dur="5s" begin="0s" fill="freeze" values="1; 1; 0; 1; 0; 1; 0" keyTimes="0; 0.082453; 0.202453; 0.38912; 0.615786; 0.915786; 1" keySplines="0 0 1 1; 0.333 0 0.667 1; 0.333 0 0.667 1; 0.333 0 0.667 1; 0.333 0 0.667 1; 0.333 0 0.667 1" calcMode="spline" /><g id="i4" transform="translate(41.75,254.75)"><path fill="#ff730c" d="M0,-2.5C1.381,-2.5,2.5,-1.381,2.5,0C2.5,1.381,1.381,2.5,0,2.5C-1.381,2.5,-2.5,1.381,-2.5,0C-2.5,-1.381,-1.381,-2.5,0,-2.5Z" /></g></g><g><animate repeatCount="indefinite" attributeName="opacity" dur="5s" begin="0s" fill="freeze" values="1; 1; 0; 1; 0; 1; 0" keyTimes="0; 0.035787; 0.155786; 0.342454; 0.56912; 0.78912; 1" keySplines="0 0 1 1; 0.333 0 0.667 1; 0.333 0 0.667 1; 0.333 0 0.667 1; 0.333 0 0.667 1; 0.333 0 0.667 1" calcMode="spline" /><g id="i5" transform="translate(102.75,283.75)"><path fill="#ff730c" d="M0,-2.5C1.381,-2.5,2.5,-1.381,2.5,0C2.5,1.381,1.381,2.5,0,2.5C-1.381,2.5,-2.5,1.381,-2.5,0C-2.5,-1.381,-1.381,-2.5,0,-2.5Z" /></g></g><g><animate repeatCount="indefinite" attributeName="opacity" dur="5s" begin="0s" fill="freeze" values="1; 1; 0; 1; 0; 1; 0" keyTimes="0; 0.162453; 0.282453; 0.46912; 0.695787; 0.915786; 1" keySplines="0 0 1 1; 0.333 0 0.667 1; 0.333 0 0.667 1; 0.333 0 0.667 1; 0.333 0 0.667 1; 0.333 0 0.667 1" calcMode="spline" /><g id="i6" transform="translate(155.75,326.75)"><path fill="#ff730c" d="M0,-2.5C1.381,-2.5,2.5,-1.381,2.5,0C2.5,1.381,1.381,2.5,0,2.5C-1.381,2.5,-2.5,1.381,-2.5,0C-2.5,-1.381,-1.381,-2.5,0,-2.5Z" /></g></g><g><animate repeatCount="indefinite" attributeName="opacity" dur="5s" begin="0s" fill="freeze" values="1; 1; 0; 1; 0; 1; 0" keyTimes="0; 0.475787; 0.595786; 0.875787; 1; 1; 1" keySplines="0 0 1 1; 0.333 0 0.667 1; 0.333 0 0.667 1; 0.333 0 0.667 1; 0.333 0 0.667 1; 0.333 0 0.667 1" calcMode="spline" /><g id="i7" transform="translate(245.75,320.75)"><path fill="#ff730c" d="M0,-2.5C1.381,-2.5,2.5,-1.381,2.5,0C2.5,1.381,1.381,2.5,0,2.5C-1.381,2.5,-2.5,1.381,-2.5,0C-2.5,-1.381,-1.381,-2.5,0,-2.5Z" /></g></g><g><animate repeatCount="indefinite" attributeName="opacity" dur="5s" begin="0s" fill="freeze" values="1; 1; 0; 1; 0; 1; 0" keyTimes="0; 0.24912; 0.36912; 0.555787; 0.782454; 1; 1" keySplines="0 0 1 1; 0.333 0 0.667 1; 0.333 0 0.667 1; 0.333 0 0.667 1; 0.333 0 0.667 1; 0.333 0 0.667 1" calcMode="spline" /><g id="i8" transform="translate(204.75,359.75)"><path fill="#ff730c" d="M0,-2.5C1.381,-2.5,2.5,-1.381,2.5,0C2.5,1.381,1.381,2.5,0,2.5C-1.381,2.5,-2.5,1.381,-2.5,0C-2.5,-1.381,-1.381,-2.5,0,-2.5Z" /></g></g><g><animate repeatCount="indefinite" attributeName="opacity" dur="5s" begin="0s" fill="freeze" values="1; 1; 0; 1; 0; 1; 0" keyTimes="0; 0.062453; 0.182453; 0.36912; 0.595786; 0.815786; 1" keySplines="0 0 1 1; 0.333 0 0.667 1; 0.333 0 0.667 1; 0.333 0 0.667 1; 0.333 0 0.667 1; 0.333 0 0.667 1" calcMode="spline" /><g id="i9" transform="translate(306.75,223.75)"><path fill="#ff730c" d="M0,-2.5C1.381,-2.5,2.5,-1.381,2.5,0C2.5,1.381,1.381,2.5,0,2.5C-1.381,2.5,-2.5,1.381,-2.5,0C-2.5,-1.381,-1.381,-2.5,0,-2.5Z" /></g></g><g><animate repeatCount="indefinite" attributeName="opacity" dur="5s" begin="0s" fill="freeze" values="1; 1; 0; 1; 1; 0; 0; 1; 1; 0; 0; 1; 0" keyTimes="0; 0.022453; 0.142454; 0.282454; 0.32912; 0.402453; 0.555787; 0.58912; 0.775787; 0.815787; 1; 1; 1" keySplines="0 0 1 1; 0.333 0 0.667 1; 0.333 0 0.667 1; 0.333 0 0.667 1; 0.333 0 0.667 1; 0.333 0 0.667 1; 0.333 0 0.667 1; 0.333 0 0.667 1; 0.333 0 0.667 1; 0.333 0 0.667 1; 0.333 0 0.667 1; 0.333 0 0.667 1" calcMode="spline" /><g id="i10" transform="translate(337.75,162.75)"><path fill="#ff730c" d="M0,-2.5C1.381,-2.5,2.5,-1.381,2.5,0C2.5,1.381,1.381,2.5,0,2.5C-1.381,2.5,-2.5,1.381,-2.5,0C-2.5,-1.381,-1.381,-2.5,0,-2.5Z" /></g></g><g><animate repeatCount="indefinite" attributeName="opacity" dur="5s" begin="0s" fill="freeze" values="1; 1; 0; 1; 0; 1; 0" keyTimes="0; 0.095787; 0.215787; 0.402454; 0.62912; 0.92912; 1" keySplines="0 0 1 1; 0.333 0 0.667 1; 0.333 0 0.667 1; 0.333 0 0.667 1; 0.333 0 0.667 1; 0.333 0 0.667 1" calcMode="spline" /><g id="i11" transform="translate(295.75,99.75)"><path fill="#ff730c" d="M0,-2.5C1.381,-2.5,2.5,-1.381,2.5,0C2.5,1.381,1.381,2.5,0,2.5C-1.381,2.5,-2.5,1.381,-2.5,0C-2.5,-1.381,-1.381,-2.5,0,-2.5Z" /></g></g><g><animate repeatCount="indefinite" attributeName="opacity" dur="5s" begin="0s" fill="freeze" values="1; 1; 0; 1; 0; 1; 0" keyTimes="0; 0.035787; 0.155786; 0.342454; 0.56912; 0.78912; 1" keySplines="0 0 1 1; 0.333 0 0.667 1; 0.333 0 0.667 1; 0.333 0 0.667 1; 0.333 0 0.667 1; 0.333 0 0.667 1" calcMode="spline" /><g id="i12" transform="translate(282.75,42.75)"><path fill="#ff730c" d="M0,-2.5C1.381,-2.5,2.5,-1.381,2.5,0C2.5,1.381,1.381,2.5,0,2.5C-1.381,2.5,-2.5,1.381,-2.5,0C-2.5,-1.381,-1.381,-2.5,0,-2.5Z" /></g></g><g><animate repeatCount="indefinite" attributeName="opacity" dur="5s" begin="0s" fill="freeze" values="1; 1; 0; 1; 0; 1; 0.85" keyTimes="0; 0.015787; 0.135786; 0.322454; 0.54912; 0.76912; 1" keySplines="0 0 1 1; 0.333 0 0.667 1; 0.333 0 0.667 1; 0.333 0 0.667 1; 0.333 0 0.667 1; 0.333 0 0.667 1" calcMode="spline" /><g id="i13" transform="translate(165.75,33.75)"><path fill="#ff730c" d="M0,-2.5C1.381,-2.5,2.5,-1.381,2.5,0C2.5,1.381,1.381,2.5,0,2.5C-1.381,2.5,-2.5,1.381,-2.5,0C-2.5,-1.381,-1.381,-2.5,0,-2.5Z" /></g></g><g><animate repeatCount="indefinite" attributeName="opacity" dur="5s" begin="0s" fill="freeze" values="1; 1; 0; 1; 0; 1; 0.89" keyTimes="0; 0.202453; 0.322453; 0.50912; 0.735786; 0.955787; 1" keySplines="0 0 1 1; 0.333 0 0.667 1; 0.333 0 0.667 1; 0.333 0 0.667 1; 0.333 0 0.667 1; 0.333 0 0.667 1" calcMode="spline" /><g id="i14" transform="translate(72.75,68.75)"><path fill="#ff730c" d="M0,-2.5C1.381,-2.5,2.5,-1.381,2.5,0C2.5,1.381,1.381,2.5,0,2.5C-1.381,2.5,-2.5,1.381,-2.5,0C-2.5,-1.381,-1.381,-2.5,0,-2.5Z" /></g></g><g><animate repeatCount="indefinite" attributeName="opacity" dur="5s" begin="0s" fill="freeze" values="1; 1; 0; 1; 0; 1; 0" keyTimes="0; 0.035787; 0.155787; 0.342453; 0.56912; 0.78912; 1" keySplines="0 0 1 1; 0.333 0 0.667 1; 0.333 0 0.667 1; 0.333 0 0.667 1; 0.333 0 0.667 1; 0.333 0 0.667 1" calcMode="spline" /><g id="i15" transform="translate(101.75,2.75)"><path fill="#ff730c" d="M0,-2.5C1.381,-2.5,2.5,-1.381,2.5,0C2.5,1.381,1.381,2.5,0,2.5C-1.381,2.5,-2.5,1.381,-2.5,0C-2.5,-1.381,-1.381,-2.5,0,-2.5Z" /></g></g><g><animate repeatCount="indefinite" attributeName="opacity" dur="5s" begin="0s" fill="freeze" values="1; 1; 0; 1; 0; 1; 0; 0" keyTimes="0; 0.062453; 0.182453; 0.36912; 0.595787; 0.815787; 0.962453; 1" keySplines="0 0 1 1; 0.333 0 0.667 1; 0.333 0 0.667 1; 0.333 0 0.667 1; 0.333 0 0.667 1; 0.333 0 0.667 1; 0 0 1 1" calcMode="spline" /><g id="i16" transform="translate(55.75,143.75)"><path fill="#ff730c" d="M0,-2.5C1.381,-2.5,2.5,-1.381,2.5,0C2.5,1.381,1.381,2.5,0,2.5C-1.381,2.5,-2.5,1.381,-2.5,0C-2.5,-1.381,-1.381,-2.5,0,-2.5Z" /></g></g><g><animate repeatCount="indefinite" attributeName="opacity" dur="5s" begin="0s" fill="freeze" values="1; 1; 0; 1; 0; 1; 0; 0" keyTimes="0; 0.002453; 0.122453; 0.30912; 0.535787; 0.755786; 0.995787; 1" keySplines="0 0 1 1; 0.333 0 0.667 1; 0.333 0 0.667 1; 0.333 0 0.667 1; 0.333 0 0.667 1; 0.333 0 0.667 1; 0 0 1 1" calcMode="spline" /><g id="i17" transform="translate(331.25,270.25)"><path fill="#ff730c" d="M0,-2C1.104,-2,2,-1.104,2,0C2,1.104,1.104,2,0,2C-1.104,2,-2,1.104,-2,0C-2,-1.104,-1.104,-2,0,-2Z" /></g></g></g><g transform="matrix(1,0,0,1,256,256)" opacity="0.75" id="i18"><g><g transform="translate(2.141,0.523)"><g id="i19" transform="rotate(0)"><animateTransform repeatCount="indefinite" type="rotate" attributeName="transform" dur="5s" begin="0s" calcMode="spline" values="0; 0; 360" keyTimes="0; 0.002453; 1" keySplines="0 0 1 1; 0 0 1 1" fill="freeze" /><path d="M-169.061,25.952C-163.115,129.953,-14.475,218.24,60.99,177.057C128.991,139.948,154.993,93.954,170.479,35.953C185.965,-22.049,125.83,-148.743,52.991,-160.249C-47.008,-176.047,-175.007,-78.048,-169.061,25.952Z" stroke-width="1" stroke="#ff730c"><animate repeatCount="indefinite" attributeName="d" dur="5s" begin="0s" calcMode="spline" values="M-169.063,25.953C-163.118,129.953,-14.473,218.243,60.992,177.061C128.992,139.953,154.993,93.953,170.479,35.953C185.965,-22.047,125.831,-148.744,52.992,-160.25C-47.008,-176.047,-175.008,-78.047,-169.063,25.953Z; M-141.063,5.953C-121.24,133.801,-41.859,176.523,38.992,123.061C114.015,73.453,150.14,112.524,168.478,31.953C186.697,-48.095,112.522,-128.819,34.992,-152.25C-41.86,-175.477,-155.859,-89.477,-141.063,5.953Z; M-169.063,25.953C-163.118,129.953,-14.473,218.243,60.992,177.061C128.992,139.953,154.993,93.953,170.479,35.953C185.965,-22.047,125.831,-148.744,52.992,-160.25C-47.008,-176.047,-175.008,-78.047,-169.063,25.953Z" keyTimes="0; 0.502454; 1" keySplines="0.333 0 0.667 1; 0.333 0 0.667 1" fill="freeze" /></path></g></g></g></g><g transform="matrix(0.906,-0.423,0.423,0.906,256,256)" opacity="0.75" id="i20"><g><g transform="translate(2.141,0.523)"><g id="i19" transform="rotate(0)"><animateTransform repeatCount="indefinite" type="rotate" attributeName="transform" dur="5s" begin="0s" calcMode="spline" values="0; 0; -360" keyTimes="0; 0.002453; 1" keySplines="0 0 1 1; 0 0 1 1" fill="freeze" /><path d="M-169.061,25.952C-163.115,129.953,-14.475,218.24,60.99,177.057C128.991,139.948,154.993,93.954,170.479,35.953C185.965,-22.049,125.83,-148.743,52.991,-160.249C-47.008,-176.047,-175.007,-78.048,-169.061,25.952Z" stroke-miterlimit="3" stroke-width="1" stroke-opacity="0.25" stroke="#ff730c"><animate repeatCount="indefinite" attributeName="d" dur="5s" begin="0s" calcMode="spline" values="M-169.063,25.953C-163.118,129.953,-14.473,218.243,60.992,177.061C128.992,139.953,154.993,93.953,170.479,35.953C185.965,-22.047,125.831,-148.744,52.992,-160.25C-47.008,-176.047,-175.008,-78.047,-169.063,25.953Z; M-141.063,5.953C-121.24,133.801,-41.859,176.523,38.992,123.061C114.015,73.453,150.14,112.524,168.478,31.953C186.697,-48.095,112.522,-128.819,34.992,-152.25C-41.86,-175.477,-155.859,-89.477,-141.063,5.953Z; M-169.063,25.953C-163.118,129.953,-14.473,218.243,60.992,177.061C128.992,139.953,154.993,93.953,170.479,35.953C185.965,-22.047,125.831,-148.744,52.992,-160.25C-47.008,-176.047,-175.008,-78.047,-169.063,25.953Z" keyTimes="0; 0.502454; 1" keySplines="0.333 0 0.667 1; 0.333 0 0.667 1" fill="freeze" /></path></g></g></g></g><g transform="matrix(1,0,0,1,256,256)" opacity="0.75" id="i21"><g><g transform="translate(2.141,0.523)"><g id="i19" transform="rotate(0)"><animateTransform repeatCount="indefinite" type="rotate" attributeName="transform" dur="5s" begin="0s" calcMode="spline" values="0; 0; -360" keyTimes="0; 0.002453; 1" keySplines="0 0 1 1; 0 0 1 1" fill="freeze" /><path d="M-181.063,-12.047C-180.084,66.483,-0.473,230.243,74.992,189.061C142.992,151.953,169.86,63.476,156.479,-8.047C143.098,-79.57,69.859,-164.523,-15.008,-168.25C-99.875,-171.977,-182.141,-98.523,-181.063,-12.047Z" stroke-width="1" stroke="#ff730c"><animate repeatCount="indefinite" attributeName="d" dur="5s" begin="0s" calcMode="spline" values="M-181.063,-12.047C-180.084,66.483,-0.473,230.243,74.992,189.061C142.992,151.953,169.86,63.476,156.479,-8.047C143.098,-79.57,69.859,-164.523,-15.008,-168.25C-99.875,-171.977,-182.141,-98.523,-181.063,-12.047Z; M-181.063,-12.047C-180.084,66.483,-0.473,230.243,74.992,189.061C142.992,151.953,169.86,63.476,156.479,-8.047C143.098,-79.57,69.859,-164.523,-15.008,-168.25C-99.875,-171.977,-182.141,-98.523,-181.063,-12.047Z; M-127.063,-6.047C-107.24,121.801,-29.859,196.523,54.992,151.061C134.271,108.585,134.14,112.524,152.478,31.953C170.697,-48.095,76.522,-148.819,-1.008,-172.25C-77.86,-195.477,-141.859,-101.477,-127.063,-6.047Z; M-181.063,-12.047C-180.084,66.483,-0.473,230.243,74.992,189.061C142.992,151.953,169.86,63.476,156.479,-8.047C143.098,-79.57,69.859,-164.523,-15.008,-168.25C-99.875,-171.977,-182.141,-98.523,-181.063,-12.047Z" keyTimes="0; 0.002453; 0.502453; 1" keySplines="0 0 1 1; 0.333 0 0.667 1; 0.333 0 0.667 1" fill="freeze" /></path></g></g></g></g><g transform="matrix(1,0,0,1,256,256)" opacity="0.5" id="i22"><g><g transform="translate(2.141,0.523)"><g id="i19" transform="rotate(0)"><animateTransform repeatCount="indefinite" type="rotate" attributeName="transform" dur="5s" begin="0s" calcMode="spline" values="0; 0; 720" keyTimes="0; 0.002453; 1" keySplines="0 0 1 1; 0 0 1 1" fill="freeze" /><path d="M-193.063,37.953C-181.985,170.43,1.527,214.243,76.992,173.061C144.992,135.953,197.86,63.476,182.479,-38.047C167.098,-139.57,85.859,-190.523,-29.008,-180.25C-143.875,-169.977,-204.141,-94.524,-193.063,37.953Z" stroke-width="1" stroke="#ff730c"><animate repeatCount="indefinite" attributeName="d" dur="5s" begin="0s" calcMode="spline" values="M-193.063,37.953C-181.985,170.43,1.527,214.243,76.992,173.061C144.992,135.953,197.86,63.476,182.479,-38.047C167.098,-139.57,85.859,-190.523,-29.008,-180.25C-143.875,-169.977,-204.141,-94.524,-193.063,37.953Z; M-193.063,37.953C-181.985,170.43,1.527,214.243,76.992,173.061C144.992,135.953,197.86,63.476,182.479,-38.047C167.098,-139.57,85.859,-190.523,-29.008,-180.25C-143.875,-169.977,-204.141,-94.524,-193.063,37.953Z; M-127.063,-6.047C-107.24,121.801,-29.859,196.523,54.992,151.061C134.271,108.585,134.14,112.524,152.478,31.953C170.697,-48.095,76.522,-148.819,-1.008,-172.25C-77.86,-195.477,-141.859,-101.477,-127.063,-6.047Z; M-193.063,37.953C-181.985,170.43,1.527,214.243,76.992,173.061C144.992,135.953,197.86,63.476,182.479,-38.047C167.098,-139.57,85.859,-190.523,-29.008,-180.25C-143.875,-169.977,-204.141,-94.524,-193.063,37.953Z" keyTimes="0; 0.002453; 0.502453; 1" keySplines="0 0 1 1; 0.333 0 0.667 1; 0.333 0 0.667 1" fill="freeze" /></path></g></g></g></g><g transform="matrix(0.906,-0.423,0.423,0.906,256,256)" opacity="0.75" id="i23"><g><g transform="translate(2.141,0.523)"><g id="i19" transform="rotate(0)"><animateTransform repeatCount="indefinite" type="rotate" attributeName="transform" dur="5s" begin="0s" calcMode="spline" values="0; 0; -360" keyTimes="0; 0.002453; 1" keySplines="0 0 1 1; 0 0 1 1" fill="freeze" /><path d="M-169.061,25.952C-163.115,129.953,-14.475,218.24,60.99,177.057C128.991,139.948,154.993,93.954,170.479,35.953C185.965,-22.049,125.83,-148.743,52.991,-160.249C-47.008,-176.047,-175.007,-78.048,-169.061,25.952Z" stroke-miterlimit="3" stroke-width="1" stroke-opacity="0.25" stroke="#ff730c"><animate repeatCount="indefinite" attributeName="d" dur="5s" begin="0s" calcMode="spline" values="M-169.063,25.953C-163.118,129.953,-14.473,218.243,60.992,177.061C128.992,139.953,154.993,93.953,170.479,35.953C185.965,-22.047,125.831,-148.744,52.992,-160.25C-47.008,-176.047,-175.008,-78.047,-169.063,25.953Z; M-141.063,5.953C-121.24,133.801,-41.859,176.523,38.992,123.061C114.015,73.453,150.14,112.524,168.478,31.953C186.697,-48.095,112.522,-128.819,34.992,-152.25C-41.86,-175.477,-155.859,-89.477,-141.063,5.953Z; M-169.063,25.953C-163.118,129.953,-14.473,218.243,60.992,177.061C128.992,139.953,154.993,93.953,170.479,35.953C185.965,-22.047,125.831,-148.744,52.992,-160.25C-47.008,-176.047,-175.008,-78.047,-169.063,25.953Z" keyTimes="0; 0.502454; 1" keySplines="0.333 0 0.667 1; 0.333 0 0.667 1" fill="freeze" /></path></g></g></g></g><g transform="matrix(0.906,0.423,-0.423,0.906,256,256)" id="i24"><g><g transform="translate(2.141,0.523)"><g id="i19" transform="rotate(0)"><animateTransform repeatCount="indefinite" type="rotate" attributeName="transform" dur="5s" begin="0s" calcMode="spline" values="0; 0; 360" keyTimes="0; 0.002453; 1" keySplines="0 0 1 1; 0 0 1 1" fill="freeze" /><path d="M-181.063,-12.047C-180.084,66.483,-0.473,230.243,74.992,189.061C142.992,151.953,169.86,63.476,156.479,-8.047C143.098,-79.57,69.859,-164.523,-15.008,-168.25C-99.875,-171.977,-182.141,-98.523,-181.063,-12.047Z" stroke-linejoin="round" stroke-linecap="round" stroke-width="1" stroke-opacity="0.25" stroke="#ff730c"><animate repeatCount="indefinite" attributeName="d" dur="5s" begin="0s" calcMode="spline" values="M-181.063,-12.047C-180.084,66.483,-0.473,230.243,74.992,189.061C142.992,151.953,169.86,63.476,156.479,-8.047C143.098,-79.57,69.859,-164.523,-15.008,-168.25C-99.875,-171.977,-182.141,-98.523,-181.063,-12.047Z; M-181.063,-12.047C-180.084,66.483,-0.473,230.243,74.992,189.061C142.992,151.953,169.86,63.476,156.479,-8.047C143.098,-79.57,69.859,-164.523,-15.008,-168.25C-99.875,-171.977,-182.141,-98.523,-181.063,-12.047Z; M-127.063,-6.047C-107.24,121.801,-29.859,196.523,54.992,151.061C134.271,108.585,134.14,112.524,152.478,31.953C170.697,-48.095,76.522,-148.819,-1.008,-172.25C-77.86,-195.477,-141.859,-101.477,-127.063,-6.047Z; M-181.063,-12.047C-180.084,66.483,-0.473,230.243,74.992,189.061C142.992,151.953,169.86,63.476,156.479,-8.047C143.098,-79.57,69.859,-164.523,-15.008,-168.25C-99.875,-171.977,-182.141,-98.523,-181.063,-12.047Z" keyTimes="0; 0.002453; 0.502453; 1" keySplines="0 0 1 1; 0.333 0 0.667 1; 0.333 0 0.667 1" fill="freeze" /></path></g></g></g></g><g id="i25"><g transform="translate(255.5,260.5)"><g transform="rotate(360)"><animateTransform repeatCount="indefinite" type="rotate" attributeName="transform" dur="5s" begin="0s" calcMode="spline" values="360; 360; 0" keyTimes="0; 0.002453; 1" keySplines="0 0 1 1; 0 0 1 1" fill="freeze" /><g transform="scale(0.647,0.663) translate(-5.276,20.351)"><g id="i26" transform="matrix(0.984,0,0,1,6.148,-23.852)"><ellipse ry="186.149" rx="186.149" cy="0" cx="0" stroke-width="1" stroke="#ff730c" /></g></g></g></g></g><g transform="matrix(0.709,0,0,0.709,252,274)" id="i27"><g id="i26" transform="matrix(0.9,0,0,0.9,6.148,-23.852)"><ellipse ry="186.149" rx="186.149" cy="0" cx="0" fill="#ff730c" fill-opacity="0.25" /></g></g></svg>